<?xml version="1.0" encoding="UTF-8"?>
<!DOCTYPE svg PUBLIC "-//W3C//DTD SVG 1.1//EN" "http://www.w3.org/Graphics/SVG/1.1/DTD/svg11.dtd">
<svg xmlns="http://www.w3.org/2000/svg" version="1.1" width="500px" height="500px" style="shape-rendering:geometricPrecision; text-rendering:geometricPrecision; image-rendering:optimizeQuality; fill-rule:evenodd; clip-rule:evenodd" xmlns:xlink="http://www.w3.org/1999/xlink">
<g><path style="opacity:1" fill="#1fc1df" d="M 482.5,468.5 C 482.672,469.492 482.338,470.158 481.5,470.5C 466.008,452.198 450.508,433.864 435,415.5C 426.907,428.074 419.074,440.741 411.5,453.5C 410.609,454.11 409.609,454.443 408.5,454.5C 387.356,434.352 365.523,415.018 343,396.5C 325.651,407.506 306.984,415.506 287,420.5C 285.993,437.911 284.326,455.244 282,472.5C 279.253,478.908 274.42,482.742 267.5,484C 255.5,484.667 243.5,484.667 231.5,484C 222.545,482.046 217.379,476.546 216,467.5C 214.722,451.828 213.388,436.161 212,420.5C 191.822,415.997 173.155,407.997 156,396.5C 143.167,407.333 130.333,418.167 117.5,429C 112.346,431.968 107.012,432.634 101.5,431C 90.397,421.9 79.897,412.067 70,401.5C 66.4199,394.305 66.7532,387.305 71,380.5C 81.3125,368.02 91.8125,355.686 102.5,343.5C 92.0437,327.132 84.7104,309.465 80.5,290.5C 80.8432,288.517 80.1765,287.183 78.5,286.5C 62.1439,285.716 45.8105,284.55 29.5,283C 21.1002,280.602 16.2669,275.102 15,266.5C 14.3333,255.167 14.3333,243.833 15,232.5C 16.4869,223.013 21.9869,217.513 31.5,216C 43.4816,214.835 55.4816,214.001 67.5,213.5C 71.5138,213.666 75.5138,213.499 79.5,213C 80.3802,211.644 80.7135,210.144 80.5,208.5C 84.7104,189.535 92.0437,171.868 102.5,155.5C 91.4794,142.98 80.6461,130.314 70,117.5C 66.6667,110.833 66.6667,104.167 70,97.5C 78.8333,88.6667 87.6667,79.8333 96.5,71C 103.767,66.3938 111.1,66.3938 118.5,71C 131,81.5 143.5,92 156,102.5C 172.368,91.737 190.201,84.4037 209.5,80.5C 211.179,80.7148 212.179,80.0481 212.5,78.5C 213.539,62.4957 214.705,46.4957 216,30.5C 217.226,23.6063 221.06,18.773 227.5,16C 242.167,15.3333 256.833,15.3333 271.5,16C 277.492,18.6587 281.325,23.1587 283,29.5C 284.599,45.4778 285.932,61.4778 287,77.5C 287.308,78.3081 287.808,78.9747 288.5,79.5C 308.113,84.1406 326.446,91.8073 343.5,102.5C 355.833,92 368.167,81.5 380.5,71C 387.336,66.832 394.336,66.4987 401.5,70C 410.667,79.1667 419.833,88.3333 429,97.5C 433.23,104.041 433.23,110.708 429,117.5C 418.167,130.333 407.333,143.167 396.5,156C 407.605,173.308 415.605,191.975 420.5,212C 437.874,213.337 455.207,215.003 472.5,217C 478.492,219.659 482.325,224.159 484,230.5C 484.667,243.167 484.667,255.833 484,268.5C 482.395,276.529 477.562,281.363 469.5,283C 453.171,284.384 436.837,285.718 420.5,287C 415.605,307.025 407.605,325.692 396.5,343C 404.215,352.26 412.048,361.426 420,370.5C 426.064,361.43 431.731,352.097 437,342.5C 437.908,340.561 439.408,339.561 441.5,339.5C 454.559,382.677 468.226,425.677 482.5,468.5 Z M 351.5,353.5 C 348.236,355.094 345.569,357.427 343.5,360.5C 297.514,396.38 247.18,403.88 192.5,383C 139.862,357.572 110.529,315.739 104.5,257.5C 104.464,248.815 104.797,240.149 105.5,231.5C 115.798,171.733 149.465,131.567 206.5,111C 278.107,93.7388 334.273,115.572 375,176.5C 407.336,241 399.503,300 351.5,353.5 Z M 192.5,157.5 C 193.167,157.5 193.833,157.5 194.5,157.5C 195.082,162.084 197.082,165.918 200.5,169C 206.056,170.239 211.722,170.906 217.5,171C 221.5,174 221.5,177 217.5,180C 206.172,182.887 196.672,180.054 189,171.5C 187.878,169.593 187.045,167.593 186.5,165.5C 186.833,164.833 187.167,164.167 187.5,163.5C 189.099,163.768 190.432,163.434 191.5,162.5C 192.451,161.081 192.784,159.415 192.5,157.5 Z M 333.5,208.5 C 332.167,209.5 332.167,210.5 333.5,211.5C 333.842,212.338 334.508,212.672 335.5,212.5C 335.443,213.609 335.11,214.609 334.5,215.5C 326.99,218.622 319.324,219.122 311.5,217C 305.874,213.762 301.874,209.095 299.5,203C 302.154,196.56 305.654,196.06 310,201.5C 312.963,207.561 317.797,209.728 324.5,208C 327.521,207.151 330.521,206.317 333.5,205.5C 333.5,206.5 333.5,207.5 333.5,208.5 Z M 166.5,206.5 C 168.823,210.002 172.156,212.002 176.5,212.5C 181.305,211.764 185.638,209.93 189.5,207C 195.667,205.167 197.833,207.333 196,213.5C 188.297,221.514 179.13,224.014 168.5,221C 165.734,219.629 163.401,217.796 161.5,215.5C 162.167,214.5 162.833,213.5 163.5,212.5C 164.492,212.672 165.158,212.338 165.5,211.5C 166.239,211.631 166.906,211.464 167.5,211C 166.833,209.667 166.167,208.333 165.5,207C 165.728,206.601 166.062,206.435 166.5,206.5 Z M 212.5,228.5 C 217.489,228.04 222.156,229.04 226.5,231.5C 229.653,235.888 228.653,238.888 223.5,240.5C 219.539,238.335 215.539,238.168 211.5,240C 207.452,244.38 203.785,249.046 200.5,254C 196.801,254.823 194.467,253.323 193.5,249.5C 196.759,239.581 203.092,232.581 212.5,228.5 Z M 171.5,235.5 C 177.333,236.856 179,240.356 176.5,246C 176.98,250.056 178.147,253.889 180,257.5C 183.543,259.467 187.21,261.134 191,262.5C 192.756,267.406 191.089,270.073 186,270.5C 176.627,269.454 170.627,264.454 168,255.5C 167.333,249.833 167.333,244.167 168,238.5C 169.145,237.364 170.312,236.364 171.5,235.5 Z M 321.5,239.5 C 324.561,239.444 326.728,240.778 328,243.5C 330.35,253.775 327.85,262.608 320.5,270C 316.525,272.74 312.192,274.073 307.5,274C 304.125,272.971 302.958,270.804 304,267.5C 307.87,264.983 311.87,262.65 316,260.5C 316.667,259.167 317.333,257.833 318,256.5C 318.333,251.833 318.667,247.167 319,242.5C 320.045,241.627 320.878,240.627 321.5,239.5 Z M 266.5,242.5 C 274.966,243.491 281.8,247.491 287,254.5C 289.917,260.675 290.25,267.008 288,273.5C 283.904,277.784 280.404,277.451 277.5,272.5C 280.72,266.427 280.053,260.927 275.5,256C 271.921,254.294 268.421,252.461 265,250.5C 263.269,247.561 263.769,244.894 266.5,242.5 Z M 201.5,272.5 C 205.451,272.285 207.784,274.118 208.5,278C 205.415,287.717 198.748,292.884 188.5,293.5C 182.756,293.029 177.422,291.362 172.5,288.5C 170.96,285.709 171.294,283.209 173.5,281C 179.444,281.983 185.444,282.65 191.5,283C 196.361,280.972 199.694,277.472 201.5,272.5 Z M 279.5,279.5 C 285.456,278.943 290.623,280.61 295,284.5C 295.783,288.229 294.283,290.563 290.5,291.5C 279.929,287.872 273.096,291.538 270,302.5C 266.125,306.741 262.959,306.241 260.5,301C 263.295,290.495 269.629,283.328 279.5,279.5 Z M 229.5,293.5 C 233.779,294.611 235.279,297.277 234,301.5C 226.73,313.397 216.564,317.23 203.5,313C 199.027,311.226 197.194,308.06 198,303.5C 200.153,301.556 202.653,301.056 205.5,302C 209.894,306.198 214.561,306.531 219.5,303C 222.729,299.601 226.062,296.435 229.5,293.5 Z M 313.5,333.5 C 313.167,334.167 312.833,334.833 312.5,335.5C 310.833,335.5 309.167,335.5 307.5,335.5C 307.5,337.167 307.5,338.833 307.5,340.5C 296.78,343.579 288.28,340.246 282,330.5C 279.915,326.125 280.082,321.958 282.5,318C 284.167,317.333 285.833,317.333 287.5,318C 289.669,320.819 291.169,323.986 292,327.5C 297.064,332.057 302.898,333.391 309.5,331.5C 310.86,332.18 312.193,332.847 313.5,333.5 Z"/></g>
<g><path style="opacity:1" fill="#3ec6e2" d="M 192.5,55.5 C 200.744,55.2276 203.078,58.7276 199.5,66C 189.5,71.6667 179.5,77.3333 169.5,83C 164.608,84.6897 161.608,83.023 160.5,78C 161.083,75.5007 162.416,73.5007 164.5,72C 174.061,66.7257 183.394,61.2257 192.5,55.5 Z"/></g>
<g><path style="opacity:1" fill="#3cc5e1" d="M 310.5,63.5 C 322.936,66.1925 335.269,69.3592 347.5,73C 351.08,75.9263 351.413,79.2596 348.5,83C 347.128,83.4017 345.795,83.9017 344.5,84.5C 332.883,81.1789 321.216,78.0122 309.5,75C 305.376,70.6949 305.709,66.8615 310.5,63.5 Z"/></g>
<g><path style="opacity:0.635" fill="#abe7f3" d="M 212.5,78.5 C 212.179,80.0481 211.179,80.7148 209.5,80.5C 210.29,79.5987 211.29,78.9321 212.5,78.5 Z"/></g>
<g><path style="opacity:1" fill="#25c2e0" d="M 243.5,138.5 C 243.5,180.5 243.5,222.5 243.5,264.5C 241.366,267.946 238.199,269.613 234,269.5C 229.228,268.012 224.394,267.179 219.5,267C 216.887,269.795 216.887,272.629 219.5,275.5C 226.825,279.207 234.492,280.207 242.5,278.5C 243.494,288.987 243.828,299.654 243.5,310.5C 231.305,312.342 223.305,319.342 219.5,331.5C 220.501,335.836 223.168,337.336 227.5,336C 229.502,331.004 232.502,326.67 236.5,323C 239.014,321.748 241.68,321.248 244.5,321.5C 244.5,333.5 244.5,345.5 244.5,357.5C 244.5,358.167 244.5,358.833 244.5,359.5C 227.09,370.175 211.256,368.175 197,353.5C 194.063,349.626 192.229,345.293 191.5,340.5C 192.167,336.5 190.5,334.833 186.5,335.5C 167.671,328.866 159.838,315.533 163,295.5C 163.346,293.782 163.846,292.115 164.5,290.5C 144.7,277.61 137.533,259.61 143,236.5C 146.155,226.865 151.988,219.532 160.5,214.5C 160.5,215.167 160.833,215.5 161.5,215.5C 163.401,217.796 165.734,219.629 168.5,221C 179.13,224.014 188.297,221.514 196,213.5C 197.833,207.333 195.667,205.167 189.5,207C 185.638,209.93 181.305,211.764 176.5,212.5C 172.156,212.002 168.823,210.002 166.5,206.5C 166.158,205.662 165.492,205.328 164.5,205.5C 159.625,186.249 166.292,172.582 184.5,164.5C 185.167,164.833 185.833,165.167 186.5,165.5C 187.045,167.593 187.878,169.593 189,171.5C 196.672,180.054 206.172,182.887 217.5,180C 221.5,177 221.5,174 217.5,171C 211.722,170.906 206.056,170.239 200.5,169C 197.082,165.918 195.082,162.084 194.5,157.5C 193.89,156.609 193.557,155.609 193.5,154.5C 197.417,144.085 204.751,137.252 215.5,134C 225.482,131.72 234.816,133.22 243.5,138.5 Z M 212.5,228.5 C 203.092,232.581 196.759,239.581 193.5,249.5C 194.467,253.323 196.801,254.823 200.5,254C 203.785,249.046 207.452,244.38 211.5,240C 215.539,238.168 219.539,238.335 223.5,240.5C 228.653,238.888 229.653,235.888 226.5,231.5C 222.156,229.04 217.489,228.04 212.5,228.5 Z M 171.5,235.5 C 170.312,236.364 169.145,237.364 168,238.5C 167.333,244.167 167.333,249.833 168,255.5C 170.627,264.454 176.627,269.454 186,270.5C 191.089,270.073 192.756,267.406 191,262.5C 187.21,261.134 183.543,259.467 180,257.5C 178.147,253.889 176.98,250.056 176.5,246C 179,240.356 177.333,236.856 171.5,235.5 Z M 201.5,272.5 C 199.694,277.472 196.361,280.972 191.5,283C 185.444,282.65 179.444,281.983 173.5,281C 171.294,283.209 170.96,285.709 172.5,288.5C 177.422,291.362 182.756,293.029 188.5,293.5C 198.748,292.884 205.415,287.717 208.5,278C 207.784,274.118 205.451,272.285 201.5,272.5 Z M 229.5,293.5 C 226.062,296.435 222.729,299.601 219.5,303C 214.561,306.531 209.894,306.198 205.5,302C 202.653,301.056 200.153,301.556 198,303.5C 197.194,308.06 199.027,311.226 203.5,313C 216.564,317.23 226.73,313.397 234,301.5C 235.279,297.277 233.779,294.611 229.5,293.5 Z"/></g>
<g><path style="opacity:1" fill="#22c1df" d="M 333.5,182.5 C 333.41,185.152 334.076,187.485 335.5,189.5C 337.093,196.038 336.427,202.371 333.5,208.5C 333.5,207.5 333.5,206.5 333.5,205.5C 330.521,206.317 327.521,207.151 324.5,208C 317.797,209.728 312.963,207.561 310,201.5C 305.654,196.06 302.154,196.56 299.5,203C 301.874,209.095 305.874,213.762 311.5,217C 319.324,219.122 326.99,218.622 334.5,215.5C 335.778,215.218 336.778,214.551 337.5,213.5C 352.547,223.263 359.38,237.263 358,255.5C 355.637,270.908 347.803,282.574 334.5,290.5C 339.964,305.872 336.631,319.039 324.5,330C 321.757,332.038 318.757,333.538 315.5,334.5C 314.833,334.167 314.167,333.833 313.5,333.5C 312.193,332.847 310.86,332.18 309.5,331.5C 302.898,333.391 297.064,332.057 292,327.5C 291.169,323.986 289.669,320.819 287.5,318C 285.833,317.333 284.167,317.333 282.5,318C 280.082,321.958 279.915,326.125 282,330.5C 288.28,340.246 296.78,343.579 307.5,340.5C 300.769,361.542 286.436,369.709 264.5,365C 261.102,363.643 258.102,361.81 255.5,359.5C 255.168,315.663 255.501,271.997 256.5,228.5C 264.433,230.255 272.099,229.422 279.5,226C 283.602,221.674 282.768,218.508 277,216.5C 270.98,219.578 264.813,220.078 258.5,218C 257.29,216.961 256.29,215.794 255.5,214.5C 255.5,189.167 255.5,163.833 255.5,138.5C 273.021,129.115 288.521,131.781 302,146.5C 304.837,151.172 306.837,156.172 308,161.5C 319.994,164.333 328.494,171.333 333.5,182.5 Z M 321.5,239.5 C 320.878,240.627 320.045,241.627 319,242.5C 318.667,247.167 318.333,251.833 318,256.5C 317.333,257.833 316.667,259.167 316,260.5C 311.87,262.65 307.87,264.983 304,267.5C 302.958,270.804 304.125,272.971 307.5,274C 312.192,274.073 316.525,272.74 320.5,270C 327.85,262.608 330.35,253.775 328,243.5C 326.728,240.778 324.561,239.444 321.5,239.5 Z M 266.5,242.5 C 263.769,244.894 263.269,247.561 265,250.5C 268.421,252.461 271.921,254.294 275.5,256C 280.053,260.927 280.72,266.427 277.5,272.5C 280.404,277.451 283.904,277.784 288,273.5C 290.25,267.008 289.917,260.675 287,254.5C 281.8,247.491 274.966,243.491 266.5,242.5 Z M 279.5,279.5 C 269.629,283.328 263.295,290.495 260.5,301C 262.959,306.241 266.125,306.741 270,302.5C 273.096,291.538 279.929,287.872 290.5,291.5C 294.283,290.563 295.783,288.229 295,284.5C 290.623,280.61 285.456,278.943 279.5,279.5 Z"/></g>
<g><path style="opacity:0.654" fill="#72daec" d="M 243.5,138.5 C 244.5,138.833 245.167,139.5 245.5,140.5C 244.833,181.833 244.167,223.167 243.5,264.5C 243.5,222.5 243.5,180.5 243.5,138.5 Z"/></g>
<g><path style="opacity:0.461" fill="#99e4f1" d="M 255.5,138.5 C 255.5,163.833 255.5,189.167 255.5,214.5C 254.833,189.833 254.167,165.167 253.5,140.5C 253.833,139.5 254.5,138.833 255.5,138.5 Z"/></g>
<g><path style="opacity:1" fill="#3ec6e2" d="M 75.5,148.5 C 80.4138,147.782 83.4138,149.782 84.5,154.5C 81.4389,166.185 78.2722,177.852 75,189.5C 69.792,194.127 65.9587,193.294 63.5,187C 66.2548,176.148 69.0881,165.314 72,154.5C 72.5637,152.113 73.7304,150.113 75.5,148.5 Z"/></g>
<g><path style="opacity:0.376" fill="#c7f0f7" d="M 193.5,154.5 C 193.557,155.609 193.89,156.609 194.5,157.5C 193.833,157.5 193.167,157.5 192.5,157.5C 192.263,156.209 192.596,155.209 193.5,154.5 Z"/></g>
<g><path style="opacity:1" fill="#40c6e2" d="M 420.5,160.5 C 422.441,160.869 424.275,161.536 426,162.5C 432.167,173.5 438.333,184.5 444.5,195.5C 442.561,201.555 438.895,202.889 433.5,199.5C 427.414,189.664 421.581,179.664 416,169.5C 414.422,164.786 415.922,161.786 420.5,160.5 Z"/></g>
<g><path style="opacity:0.214" fill="#d5f4f9" d="M 184.5,164.5 C 185.209,163.596 186.209,163.263 187.5,163.5C 187.167,164.167 186.833,164.833 186.5,165.5C 185.833,165.167 185.167,164.833 184.5,164.5 Z"/></g>
<g><path style="opacity:0.992" fill="#89dced" d="M 333.5,182.5 C 334.924,184.515 335.59,186.848 335.5,189.5C 334.076,187.485 333.41,185.152 333.5,182.5 Z"/></g>
<g><path style="opacity:0.09" fill="#def6fa" d="M 164.5,205.5 C 165.492,205.328 166.158,205.662 166.5,206.5C 166.062,206.435 165.728,206.601 165.5,207C 166.167,208.333 166.833,209.667 167.5,211C 166.906,211.464 166.239,211.631 165.5,211.5C 165.167,209.5 164.833,207.5 164.5,205.5 Z"/></g>
<g><path style="opacity:0.973" fill="#7ad8eb" d="M 80.5,208.5 C 80.7135,210.144 80.3802,211.644 79.5,213C 75.5138,213.499 71.5138,213.666 67.5,213.5C 70.977,212.677 74.6437,212.177 78.5,212C 79.0848,210.698 79.7515,209.531 80.5,208.5 Z"/></g>
<g><path style="opacity:0.027" fill="#def6fa" d="M 163.5,212.5 C 162.833,213.5 162.167,214.5 161.5,215.5C 160.833,215.5 160.5,215.167 160.5,214.5C 160.973,213.094 161.973,212.427 163.5,212.5 Z"/></g>
<g><path style="opacity:0.749" fill="#abe6f2" d="M 335.5,212.5 C 336.492,212.328 337.158,212.662 337.5,213.5C 336.778,214.551 335.778,215.218 334.5,215.5C 335.11,214.609 335.443,213.609 335.5,212.5 Z"/></g>
<g><path style="opacity:0.682" fill="#93e1f0" d="M 105.5,231.5 C 104.797,240.149 104.464,248.815 104.5,257.5C 103.835,254.518 103.502,251.352 103.5,248C 103.415,242.266 104.082,236.766 105.5,231.5 Z"/></g>
<g><path style="opacity:0.471" fill="#9be5f1" d="M 256.5,228.5 C 255.501,271.997 255.168,315.663 255.5,359.5C 253.456,358.969 251.789,357.802 250.5,356C 251.996,355.493 253.163,355.993 254,357.5C 254.167,314.163 254.667,270.829 255.5,227.5C 256.107,227.624 256.44,227.957 256.5,228.5 Z"/></g>
<g><path style="opacity:0.656" fill="#70d9ec" d="M 242.5,278.5 C 242.56,277.957 242.893,277.624 243.5,277.5C 244.824,288.66 244.824,299.66 243.5,310.5C 243.828,299.654 243.494,288.987 242.5,278.5 Z"/></g>
<g><path style="opacity:0.753" fill="#b1e8f3" d="M 78.5,286.5 C 80.1765,287.183 80.8432,288.517 80.5,290.5C 79.6554,289.329 78.9887,287.995 78.5,286.5 Z"/></g>
<g><path style="opacity:1" fill="#3ec6e2" d="M 58.5,297.5 C 61.2724,297.22 63.7724,297.887 66,299.5C 71.6667,309.5 77.3333,319.5 83,329.5C 84.1426,336.696 81.3093,339.196 74.5,337C 67.7053,327.249 61.5386,317.083 56,306.5C 54.9271,302.9 55.7605,299.9 58.5,297.5 Z"/></g>
<g><path style="opacity:1" fill="#3ec6e2" d="M 427.5,306.5 C 432.33,306.074 434.997,308.241 435.5,313C 432.827,325.537 429.161,337.704 424.5,349.5C 415.964,351.452 413.131,348.119 416,339.5C 418.511,329.789 421.178,320.123 424,310.5C 424.69,308.65 425.856,307.316 427.5,306.5 Z"/></g>
<g><path style="opacity:0.302" fill="#c6f0f7" d="M 313.5,333.5 C 314.167,333.833 314.833,334.167 315.5,334.5C 314.791,335.404 313.791,335.737 312.5,335.5C 312.833,334.833 313.167,334.167 313.5,333.5 Z"/></g>
<g><path style="opacity:0.247" fill="#d4f4f9" d="M 312.5,335.5 C 311.432,336.434 310.099,336.768 308.5,336.5C 308.768,338.099 308.434,339.432 307.5,340.5C 307.5,338.833 307.5,337.167 307.5,335.5C 309.167,335.5 310.833,335.5 312.5,335.5 Z"/></g>
<g><path style="opacity:0.588" fill="#b3eaf4" d="M 186.5,335.5 C 190.5,334.833 192.167,336.5 191.5,340.5C 190.732,339.737 190.232,338.737 190,337.5C 188.698,336.915 187.531,336.249 186.5,335.5 Z"/></g>
<g><path style="opacity:0.792" fill="#8bdced" d="M 351.5,353.5 C 349.431,356.573 346.764,358.906 343.5,360.5C 345.569,357.427 348.236,355.094 351.5,353.5 Z"/></g>
<g><path style="opacity:0.047" fill="#e5f7fb" d="M 247.5,356.5 C 246.833,357.833 245.833,358.833 244.5,359.5C 244.5,358.833 244.5,358.167 244.5,357.5C 245.391,356.89 246.391,356.557 247.5,356.5 Z"/></g>
<g><path style="opacity:1" fill="#3ac5e1" d="M 151.5,415.5 C 164.064,417.224 176.397,420.057 188.5,424C 192.213,425.691 193.379,428.525 192,432.5C 190.745,434.594 188.912,435.594 186.5,435.5C 175.463,432.824 164.463,429.991 153.5,427C 147.732,423.997 147.065,420.164 151.5,415.5 Z"/></g>
<g><path style="opacity:1" fill="#3fc6e2" d="M 329.5,415.5 C 337.339,415.203 339.672,418.536 336.5,425.5C 326.664,431.586 316.664,437.419 306.5,443C 300.166,444.329 297.332,441.829 298,435.5C 299.167,434.333 300.333,433.167 301.5,432C 311.061,426.726 320.394,421.226 329.5,415.5 Z"/></g>
<g><path style="opacity:0.004" fill="#ccf0f7" d="M 411.5,453.5 C 410.947,455.552 409.947,455.885 408.5,454.5C 409.609,454.443 410.609,454.11 411.5,453.5 Z"/></g>
<g><path style="opacity:0.322" fill="#d9f5f9" d="M 482.5,468.5 C 483.776,469.386 483.776,470.386 482.5,471.5C 481.893,471.376 481.56,471.043 481.5,470.5C 482.338,470.158 482.672,469.492 482.5,468.5 Z"/></g>
</svg>
